<svg width="20" height="17" viewBox="0 0 20 17" fill="none" xmlns="http://www.w3.org/2000/svg">
<path d="M2.17334 1.80396C4.21182 -0.23453 7.46292 -0.374066 9.50146 1.66431L10.0083 2.25708L10.5737 1.66431C12.5648 -0.326749 15.6524 -0.234109 17.6997 1.66431L17.8442 1.80396C19.8348 3.79516 19.347 7.77429 17.4487 9.82153L17.1987 10.0852L16.9204 10.3694C15.8491 11.4452 14.2071 12.9185 11.9946 14.7883L10.731 15.8469C10.2949 16.2098 9.66041 16.2049 9.23096 15.8342L7.67139 14.4797L6.28271 13.2581C4.63215 11.7944 3.39324 10.6489 2.56592 9.82153C0.527514 7.78308 0.135146 3.84256 2.17334 1.80396ZM16.9106 2.51489C15.2753 0.998569 12.9019 0.977206 11.4126 2.46606L9.96045 3.9856L8.65088 2.45532C7.09908 0.936468 4.60559 1.01146 2.99365 2.62329C1.49661 4.12033 1.70691 7.3219 3.38623 9.00122L3.68701 9.29907C4.53527 10.1271 5.74749 11.2373 7.31787 12.6252L8.43213 13.6038L9.98877 14.9553L11.2466 13.9016L12.1489 13.134C13.8842 11.647 15.2003 10.453 16.0884 9.56177L16.356 9.28833L16.5981 9.03247C18.2067 7.2975 18.4463 4.04625 17.0396 2.63892L16.9106 2.51489Z" fill="#262626"/>
</svg>
